<?xml version="1.0" encoding="UTF-8" standalone="no"?>
<!-- Created with Inkscape (http://www.inkscape.org/) -->
<svg
   xmlns:svg="http://www.w3.org/2000/svg"
   xmlns="http://www.w3.org/2000/svg"
   xmlns:xlink="http://www.w3.org/1999/xlink"
   version="1.0"
   width="42"
   height="36"
   id="svg2">
  <defs
     id="defs4" />
  <g
     id="layer1">
    <g
       transform="translate(0.757615,2.272843)"
       id="g2186">
      <rect
         width="33.587574"
         height="23.991123"
         x="4.0406103"
         y="6.7055759"
         style="fill:#20cd20;fill-opacity:1;fill-rule:evenodd;stroke:#008c00;stroke-width:0.75;stroke-linejoin:round;stroke-miterlimit:4;stroke-dasharray:none;stroke-opacity:1"
         id="rect1307" />
      <rect
         width="5.5558391"
         height="25.001276"
         x="18.687822"
         y="6.4530382"
         style="fill:#20f120;fill-opacity:1;fill-rule:evenodd;stroke:#008c00;stroke-width:0.75;stroke-linejoin:round;stroke-miterlimit:4;stroke-dasharray:none;stroke-opacity:1"
         id="rect2182" />
      <rect
         width="5.555881"
         height="35.289703"
         x="15.922621"
         y="-38.1306"
         transform="matrix(5.833385e-3,0.999983,-0.999996,2.927858e-3,0,0)"
         style="fill:#20f120;fill-opacity:1;fill-rule:evenodd;stroke:#008c00;stroke-width:0.89105767;stroke-linejoin:round;stroke-miterlimit:4;stroke-dasharray:none;stroke-opacity:1"
         id="rect2184" />
    </g>
    <path
       d="M 22.475894,8.220805 C 22.475894,8.220805 19.571706,1.9073516 16.414979,1.4022753 C 13.613073,0.95397026 11.400932,5.4808057 14.142136,6.2004999 C 19.52918,7.614851 23.2217,8.2252335 22.475894,8.220805 z "
       style="fill:#dde120;fill-opacity:1;fill-rule:evenodd;stroke:#afb000;stroke-width:1px;stroke-linecap:butt;stroke-linejoin:miter;stroke-opacity:1"
       id="path2191" />
    <use
       transform="matrix(-1.018665,0,0,1,44.91627,-0.252538)"
       id="use2195"
       x="0"
       y="0"
       width="42"
       height="36"
       xlink:href="#path2191" />
  </g>
  <g
     id="g2216">
    <path
       d="M 28.789348,18.827407 C 28.931854,16.541565 29.373318,8.5680936 31.062191,5.1903473 C 32.892423,1.5298828 39.901025,1.3728536 35.860415,9.2309575 C 35.096903,10.715822 34.46749,13.276855 33.335034,14.786797 C 32.185723,16.319211 30.794478,18.426381 28.789348,18.827407 z "
       style="fill:#dd2420;fill-opacity:1;fill-rule:evenodd;stroke:#000000;stroke-width:1px;stroke-linecap:butt;stroke-linejoin:miter;stroke-opacity:1"
       id="path2210" />
    <path
       d="M 24.748737,24.888322 C 24.427513,24.567098 28.71434,21.482828 29.546962,25.645936 C 30.057711,28.19968 27.631098,28.63937 25.75889,28.171318 C 24.272269,27.799662 24.820437,25.287438 25.001276,24.383246"
       style="fill:#dd2420;fill-opacity:1;fill-rule:evenodd;stroke:#000000;stroke-width:1px;stroke-linecap:butt;stroke-linejoin:miter;stroke-opacity:1"
       id="path2214" />
  </g>
</svg>
